<svg width="784" height="198" viewBox="0 0 784 198" fill="none" xmlns="http://www.w3.org/2000/svg">
<path d="M0 9.59841C5.5582 10.2523 10.2173 10.7427 13.9772 11.0697C17.9007 11.2332 21.0885 11.4784 23.5406 11.8053C26.4832 12.1323 28.7719 12.2958 30.4066 12.2958C32.2049 12.4592 34.9022 12.3775 38.4987 12.0506C41.6048 11.7236 45.7734 11.3149 51.0047 10.8245C56.3994 10.3341 63.2654 9.59841 71.6027 8.61755C67.8428 11.8871 64.8185 15.0749 62.5298 18.1809C60.4046 21.1235 58.7698 23.7391 57.6255 26.0278C56.1542 28.8069 55.2551 31.4225 54.9281 33.8747C54.2742 37.7981 53.702 43.1928 53.2116 50.0589C52.8847 56.7614 52.5577 64.1178 52.2308 72.1282C51.9038 80.1385 51.7403 88.3941 51.7403 96.8949C51.7403 105.396 51.8221 113.488 51.9855 121.171C52.3125 128.691 52.8029 135.394 53.4568 141.279C54.2742 147.164 55.2551 151.414 56.3994 154.03C58.0342 156.973 59.7507 159.915 61.5489 162.858C63.1837 165.31 65.1454 167.844 67.4341 170.459C69.7228 173.075 72.3384 175.2 75.281 176.835C65.6358 176.344 57.9524 176.099 52.2308 176.099H43.403C40.7874 176.099 37.4361 176.263 33.3492 176.59C29.9162 176.917 25.5841 177.244 20.3528 177.571C15.1216 177.898 8.82773 178.388 1.47129 179.042C5.23125 174.955 8.17383 171.032 10.299 167.272C12.4242 163.512 14.1407 160.242 15.4485 157.463C16.9198 154.193 17.9007 151.087 18.3911 148.145C19.045 143.894 19.5354 138.663 19.8624 132.451C20.3528 126.075 20.6798 119.291 20.8433 112.098C21.0067 104.742 21.0067 97.3036 20.8433 89.7837C20.8433 82.1003 20.6798 74.7438 20.3528 67.7143C20.0259 60.6848 19.5354 54.3092 18.8815 48.5876C18.3911 42.8659 17.7372 38.2885 16.9198 34.8555C16.4294 32.7303 15.4485 30.3599 13.9772 27.7443C12.6694 25.4556 10.8712 22.84 8.58252 19.8974C6.45732 16.7914 3.59648 13.3584 0 9.59841Z" fill="url(#paint0_linear_604_4)"/>
<path d="M123.098 10.5793C126.694 8.61755 130.781 6.90105 135.359 5.42976C139.936 3.79499 144.677 2.56892 149.581 1.75153C154.485 0.770675 159.39 0.198507 164.294 0.0350307C169.362 -0.128446 174.103 0.280245 178.516 1.2611C191.431 4.04021 202.302 9.3532 211.13 17.2001C219.958 25.0469 226.742 34.2016 231.483 44.6641C236.387 55.1266 239.248 66.4065 240.065 78.5038C241.046 90.4376 240.065 101.963 237.123 113.079C236.142 116.349 234.507 120.109 232.218 124.359C230.257 127.955 227.559 132.369 224.126 137.601C220.693 142.668 216.198 148.308 210.64 154.52C211.947 157.463 213.255 159.833 214.563 161.632C216.034 163.266 217.424 164.492 218.732 165.31C220.203 166.291 221.592 166.945 222.9 167.272C224.208 167.435 225.761 167.517 227.559 167.517C229.031 167.517 230.747 167.435 232.709 167.272C234.834 166.945 237.123 166.454 239.575 165.8L201.321 197.678C200.831 195.063 200.259 192.774 199.605 190.812C199.114 189.014 198.706 187.461 198.379 186.153L196.908 182.475C196.254 181.657 195.6 180.595 194.946 179.287C194.292 178.306 193.556 177.08 192.739 175.609C191.921 174.138 190.859 172.503 189.551 170.705C179.252 174.628 169.852 177.162 161.351 178.306C153.014 179.451 145.412 179.532 138.546 178.551C131.68 177.734 125.55 176.181 120.155 173.892C114.761 171.44 110.02 168.661 105.933 165.555C96.4512 158.199 89.013 148.553 83.6183 136.62C77.5696 120.272 74.7905 105.314 75.281 91.7454C75.9349 78.0133 78.5505 65.8344 83.1278 55.2084C87.7052 44.4189 93.5903 35.2642 100.783 27.7443C108.14 20.2244 115.578 14.5027 123.098 10.5793ZM159.39 135.148C156.937 134.495 154.649 134.249 152.524 134.413C150.725 134.576 148.927 135.148 147.129 136.129C145.331 137.11 144.023 138.908 143.205 141.524C145.331 143.649 147.292 145.447 149.091 146.919C151.052 148.227 152.687 149.289 153.995 150.107C155.63 151.087 157.101 151.905 158.409 152.559C160.697 153.376 162.986 154.03 165.275 154.52C167.237 154.847 169.362 155.011 171.65 155.011C174.103 154.847 176.391 154.193 178.516 153.049C176.882 149.616 174.92 146.755 172.631 144.467C170.506 142.014 168.463 140.134 166.501 138.827C164.212 137.192 161.842 135.966 159.39 135.148ZM133.397 126.321C136.176 122.07 139.2 119.046 142.47 117.248C145.739 115.449 148.845 114.142 151.788 113.324C155.221 112.67 158.736 112.425 162.332 112.589C165.765 113.406 169.198 114.796 172.631 116.757C175.574 118.556 178.68 121.089 181.949 124.359C185.219 127.465 188.243 131.715 191.022 137.11C193.638 133.187 195.6 129.1 196.908 124.849C198.215 120.599 199.196 116.757 199.85 113.324C200.504 109.237 200.831 105.232 200.831 101.309C200.504 95.2601 199.85 88.8845 198.869 82.182C197.888 75.4795 196.417 68.8587 194.455 62.3196C192.657 55.7805 190.368 49.5684 187.589 43.6833C184.81 37.7981 181.459 32.7303 177.536 28.48C173.776 24.2296 169.362 21.0418 164.294 18.9166C159.39 16.7914 153.831 16.2192 147.619 17.2001C140.753 18.1809 135.113 20.96 130.7 25.5374C126.449 30.1147 123.098 35.5094 120.646 41.7216C118.357 47.7702 116.886 54.3092 116.232 61.3387C115.741 68.2048 115.823 74.4169 116.477 79.9751C116.967 84.5524 117.948 89.375 119.42 94.4427C120.727 98.6931 122.444 103.597 124.569 109.156C126.694 114.714 129.637 120.436 133.397 126.321Z" fill="url(#paint1_linear_604_4)"/>
<path d="M271.904 49.5984C275.337 50.0889 278.329 50.4812 280.879 50.7755C283.43 51.0697 285.538 51.315 287.206 51.5111C289.168 51.7073 290.835 51.8544 292.208 51.9525C293.778 52.1487 295.69 52.0506 297.946 51.6583C300.3 51.2659 302.802 50.8736 305.45 50.4812C308.098 49.9908 310.845 49.5984 313.689 49.3042C316.534 49.0099 319.28 49.0099 321.928 49.3042C323.694 49.5004 325.95 49.8927 328.696 50.4812C331.443 51.0697 334.336 52.0016 337.377 53.2767C340.516 54.5518 343.654 56.2192 346.793 58.2791C349.932 60.3389 352.776 62.9381 355.327 66.0769C357.877 69.2156 359.986 72.9429 361.653 77.2587C363.321 81.5745 364.252 86.6259 364.449 92.413C364.743 101.045 363.958 108.891 362.094 115.954C360.231 123.016 357.337 129.048 353.414 134.05C349.589 139.053 344.733 142.976 338.848 145.821C332.963 148.665 326.097 150.235 318.25 150.529C312.267 151.019 306.382 151.461 300.595 151.853C298.142 152.049 295.543 152.196 292.797 152.294C290.148 152.393 287.5 152.491 284.852 152.589C282.203 152.589 279.653 152.54 277.201 152.442C274.749 152.343 272.493 152.196 270.433 152C272.689 150.921 274.504 149.842 275.877 148.763C277.348 147.684 278.476 146.753 279.261 145.968C280.144 144.987 280.781 144.104 281.174 143.32C281.37 142.241 281.664 140.132 282.056 136.993C282.351 134.345 282.743 130.568 283.233 125.664C283.724 120.76 284.312 114.09 284.999 105.655L285.882 95.2084C286.372 88.7347 286.568 83.4381 286.47 79.3185C286.47 75.1989 286.372 71.962 286.176 69.608C285.882 66.8616 285.489 64.8508 284.999 63.5757C284.607 62.4967 283.871 61.2216 282.792 59.7503C281.811 58.5733 280.438 57.1511 278.672 55.4836C277.005 53.7181 274.749 51.7563 271.904 49.5984ZM302.949 103.742C303.145 112.472 303.586 119.19 304.273 123.899C305.058 128.509 305.891 131.942 306.774 134.198C307.853 136.748 309.03 138.268 310.305 138.759C312.169 138.759 314.278 137.974 316.632 136.404C318.986 134.737 321.291 132.236 323.547 128.901C325.901 125.566 328.01 121.397 329.873 116.395C331.835 111.393 333.257 105.556 334.14 98.8866C335.023 92.2168 334.778 86.3316 333.404 81.2312C332.031 76.1307 330.217 71.864 327.961 68.4309C325.705 64.8999 323.4 62.2515 321.046 60.486C318.691 58.6224 316.926 57.6905 315.749 57.6905C314.376 57.6905 313.15 58.0829 312.071 58.8676C310.992 59.5542 309.471 61.1726 307.51 63.7228C306.529 65.096 305.646 67.0577 304.861 69.608C304.175 71.864 303.586 74.8556 303.096 78.5828C302.605 82.3101 302.458 87.1163 302.654 93.0015L302.949 103.742Z" fill="url(#paint2_linear_604_4)"/>
<path d="M409.47 130.814C412.216 130.814 414.767 130.519 417.121 129.931C419.082 129.44 420.946 128.656 422.712 127.577C424.575 126.4 425.801 124.683 426.39 122.427C428.352 122.82 430.019 123.163 431.392 123.457C432.765 123.653 433.942 123.849 434.923 124.046C436.002 124.34 436.934 124.536 437.719 124.634C438.503 124.83 439.435 125.027 440.514 125.223C441.495 125.419 442.672 125.664 444.045 125.958C445.517 126.155 447.233 126.449 449.195 126.841C447.724 126.645 446.203 126.792 444.634 127.283C443.163 127.773 441.74 128.312 440.367 128.901C438.798 129.588 437.326 130.421 435.953 131.402C435.07 131.991 434.04 132.873 432.863 134.05C431.785 135.227 430.215 136.355 428.155 137.434C426.096 138.513 423.349 139.445 419.916 140.23C416.581 140.916 412.265 141.162 406.969 140.965C400.593 140.769 395.248 139.641 390.932 137.582C386.616 135.424 383.134 132.824 380.486 129.784C377.837 126.645 375.925 123.261 374.748 119.632C373.571 116.003 372.933 112.619 372.835 109.48C372.737 106.341 373.669 103.055 375.63 99.6223C377.592 96.1893 380.338 93.0505 383.87 90.206C387.499 87.3615 391.864 85.0565 396.964 83.291C402.064 81.4273 407.655 80.4955 413.737 80.4955C417.268 80.4955 420.505 80.9369 423.447 81.8197C426.488 82.6044 429.234 83.6833 431.686 85.0565C434.237 86.4297 436.444 87.9991 438.307 89.7646C440.171 91.4321 441.74 93.1486 443.015 94.9141C444.29 96.7778 445.369 98.7395 446.252 100.799C447.037 102.565 447.674 104.576 448.165 106.832C448.655 109.088 448.802 111.393 448.606 113.747C441.152 113.943 435.119 114.09 430.509 114.188C425.997 114.286 422.466 114.335 419.916 114.335H408.293C406.527 114.335 404.222 114.384 401.378 114.482C398.533 114.58 395.051 114.728 390.932 114.924C391.422 118.847 392.648 121.888 394.61 124.046C396.67 126.105 398.828 127.675 401.084 128.754C403.634 129.931 406.429 130.617 409.47 130.814ZM396.228 104.33C399.367 104.527 401.966 104.674 404.026 104.772C406.184 104.87 407.95 104.968 409.323 105.066C410.794 105.164 411.971 105.213 412.854 105.213H416.532C418.984 105.213 423.545 105.066 430.215 104.772C429.921 100.456 428.989 97.1701 427.42 94.9141C425.948 92.6582 424.379 90.9907 422.712 89.9118C420.75 88.7347 418.592 88.0481 416.238 87.852C409.862 87.95 405.105 89.2742 401.966 91.8244C398.926 94.3747 397.013 98.5433 396.228 104.33Z" fill="url(#paint3_linear_604_4)"/>
<path d="M523.936 92.1187C523.642 90.157 523.397 88.5386 523.201 87.2634C523.004 85.8902 522.808 84.8113 522.612 84.0266C522.416 83.0457 522.269 82.3101 522.171 81.8197C521.975 81.3292 521.729 80.7898 521.435 80.2013C521.239 79.7108 520.896 79.1223 520.405 78.4357C520.013 77.7491 519.522 76.9644 518.934 76.0816C520.209 76.474 521.484 76.7192 522.759 76.8173C524.133 76.9154 525.408 77.0135 526.585 77.1115C527.86 77.2096 529.184 77.2096 530.557 77.1115C531.93 77.1115 533.5 77.0625 535.265 76.9644C536.835 76.8663 538.698 76.8173 540.856 76.8173C543.112 76.7192 545.662 76.5721 548.507 76.3759C546.839 76.7682 545.417 77.4548 544.24 78.4357C543.161 79.3185 542.229 80.2993 541.445 81.3783C540.562 82.5553 539.826 83.8304 539.238 85.2036C538.747 86.4788 538.453 88.9309 538.355 92.5601C538.257 96.0912 538.257 100.309 538.355 105.213C538.453 110.019 538.551 115.218 538.649 120.809C538.845 126.4 538.943 131.745 538.943 136.846C539.042 141.946 539.042 146.605 538.943 150.823C538.845 154.943 538.6 157.983 538.208 159.945C536.835 166.125 534.284 171.127 530.557 174.952C526.83 178.876 521.925 180.985 515.844 181.279C508.488 181.573 502.652 180.886 498.336 179.219C494.118 177.552 490.832 175.492 488.478 173.04C486.124 170.686 484.359 168.282 483.182 165.83C482.005 163.378 480.778 161.514 479.503 160.239C478.326 159.16 477.149 158.131 475.972 157.15C474.893 156.365 473.765 155.58 472.588 154.796C471.509 154.011 470.43 153.52 469.351 153.324C472.196 153.422 474.746 153.471 477.002 153.471C479.258 153.471 481.171 153.471 482.74 153.471C484.506 153.471 486.075 153.422 487.448 153.324H505.545C503.583 153.913 502.112 154.55 501.131 155.237C500.15 156.022 499.464 156.806 499.072 157.591C498.679 158.474 498.483 159.357 498.483 160.239C498.875 162.593 500.15 164.31 502.308 165.389C504.466 166.468 507.409 167.105 511.136 167.302C514.765 167.498 517.266 167.4 518.64 167.007C520.013 166.713 521.092 166.125 521.876 165.242C523.446 162.888 524.77 159.847 525.849 156.12C526.634 152.981 527.173 148.91 527.467 143.908C527.86 138.808 527.418 132.579 526.143 125.223C523.004 129.538 519.375 132.775 515.256 134.933C511.136 137.091 507.213 138.66 503.485 139.641C499.072 140.72 494.609 141.26 490.097 141.26C478.228 140.769 469.351 138.023 463.466 133.021C457.581 128.018 454.884 121.299 455.374 112.864C455.668 108.646 456.944 104.428 459.2 100.211C461.554 95.9931 464.594 92.2168 468.322 88.8819C472.147 85.5469 476.512 82.8986 481.416 80.9369C486.32 78.9752 491.421 78.1414 496.717 78.4357C500.739 78.828 504.515 79.5637 508.046 80.6426C511.087 81.6235 514.079 82.9967 517.021 84.7623C520.062 86.5278 522.367 88.9799 523.936 92.1187ZM477.149 106.832C476.561 110.657 476.806 114.237 477.885 117.572C479.062 120.907 480.68 123.8 482.74 126.253C484.8 128.607 487.105 130.47 489.655 131.844C492.205 133.119 494.609 133.707 496.865 133.609C501.573 133.511 505.643 131.402 509.076 127.283C512.509 123.065 514.569 116.787 515.256 108.45C515.55 104.33 515.01 100.799 513.637 97.8567C512.362 94.8161 510.744 92.3639 508.782 90.5003C506.82 88.6367 504.76 87.3125 502.603 86.5278C500.445 85.7431 498.728 85.3998 497.453 85.4979C495.688 85.6941 493.726 86.2335 491.568 87.1163C489.508 87.901 487.497 89.1271 485.536 90.7945C483.574 92.3639 481.808 94.4728 480.239 97.1211C478.768 99.7694 477.738 103.006 477.149 106.832Z" fill="url(#paint4_linear_604_4)"/>
<path d="M548.36 84.0266C550.223 84.1247 551.891 84.1737 553.362 84.1737C554.931 84.0757 556.256 83.9776 557.335 83.8795C558.61 83.7814 559.738 83.6833 560.719 83.5852C562.19 83.389 563.71 83.1438 565.279 82.8496C566.653 82.6534 568.075 82.4082 569.546 82.1139C571.116 81.7216 572.636 81.2802 574.107 80.7898C573.519 82.2611 573.028 83.5362 572.636 84.6151C572.244 85.6941 571.949 86.6259 571.753 87.4106C571.459 88.2934 571.312 89.029 571.312 89.6175C571.214 90.3041 571.165 91.1378 571.165 92.1187C571.067 93.7862 571.067 96.4835 571.165 100.211C576.265 95.7969 580.532 92.3639 583.965 89.9118C587.496 87.4596 590.291 85.5469 592.351 84.1737C594.803 82.6044 596.716 81.5745 598.089 81.084C601.718 80.4955 604.906 81.3292 607.653 83.5852C608.83 84.5661 609.958 85.8902 611.037 87.5577C612.116 89.1271 613.047 91.2359 613.832 93.8842C614.617 96.5326 615.205 99.7204 615.598 103.448C615.99 107.077 616.039 111.442 615.745 116.542C613.685 116.738 611.821 116.934 610.154 117.131C608.584 117.327 607.26 117.474 606.181 117.572C604.906 117.768 603.729 117.866 602.65 117.866L598.678 118.308C597.305 118.504 595.588 118.7 593.528 118.896C591.567 118.994 589.163 119.19 586.319 119.485C590.439 116.15 593.087 113.256 594.264 110.804C595.539 108.254 596.078 106.145 595.882 104.478C595.686 102.614 594.803 100.995 593.234 99.6223C591.37 98.5433 589.36 98.151 587.202 98.4452C585.338 98.6414 583.18 99.4751 580.728 100.946C578.276 102.418 575.677 105.164 572.93 109.186C573.126 115.463 573.323 120.662 573.519 124.781C573.813 128.901 574.058 132.236 574.254 134.786C574.549 137.729 574.794 140.034 574.99 141.701C575.284 143.172 575.873 144.742 576.756 146.409C577.442 147.782 578.423 149.303 579.698 150.97C580.973 152.638 582.641 154.305 584.701 155.973C580.385 155.776 576.854 155.776 574.107 155.973C572.44 156.071 570.969 156.169 569.693 156.267C568.32 156.463 566.849 156.659 565.279 156.855C563.906 157.052 562.288 157.248 560.424 157.444C558.659 157.738 556.697 158.032 554.539 158.327C555.324 157.248 555.961 155.973 556.452 154.501C556.942 153.128 557.335 151.804 557.629 150.529C558.021 149.058 558.315 147.537 558.512 145.968C558.61 144.595 558.659 142.535 558.659 139.788C558.757 137.042 558.708 133.952 558.512 130.519C558.413 126.988 558.266 123.359 558.07 119.632C557.874 115.806 557.629 112.226 557.335 108.891C557.04 105.556 556.697 102.663 556.305 100.211C556.01 97.6606 555.667 95.895 555.275 94.9141C554.784 93.7371 554.196 92.5601 553.509 91.3831C552.921 90.3041 552.185 89.1761 551.302 87.9991C550.419 86.724 549.439 85.3998 548.36 84.0266Z" fill="url(#paint5_linear_604_4)"/>
<path d="M660.178 130.814C662.924 130.814 665.474 130.519 667.828 129.931C669.79 129.44 671.654 128.656 673.419 127.577C675.283 126.4 676.509 124.683 677.097 122.427C679.059 122.82 680.727 123.163 682.1 123.457C683.473 123.653 684.65 123.849 685.631 124.046C686.71 124.34 687.642 124.536 688.426 124.634C689.211 124.83 690.143 125.027 691.222 125.223C692.203 125.419 693.38 125.664 694.753 125.958C696.224 126.155 697.941 126.449 699.902 126.841C698.431 126.645 696.911 126.792 695.341 127.283C693.87 127.773 692.448 128.312 691.075 128.901C689.505 129.588 688.034 130.421 686.661 131.402C685.778 131.991 684.748 132.873 683.571 134.05C682.492 135.227 680.923 136.355 678.863 137.434C676.803 138.513 674.057 139.445 670.624 140.23C667.289 140.916 662.973 141.162 657.676 140.965C651.301 140.769 645.955 139.641 641.639 137.582C637.324 135.424 633.842 132.824 631.193 129.784C628.545 126.645 626.632 123.261 625.455 119.632C624.278 116.003 623.641 112.619 623.543 109.48C623.444 106.341 624.376 103.055 626.338 99.6223C628.3 96.1893 631.046 93.0505 634.577 90.206C638.206 87.3615 642.571 85.0565 647.672 83.291C652.772 81.4273 658.363 80.4955 664.444 80.4955C667.975 80.4955 671.212 80.9369 674.155 81.8197C677.196 82.6044 679.942 83.6833 682.394 85.0565C684.944 86.4297 687.151 87.9991 689.015 89.7646C690.879 91.4321 692.448 93.1486 693.723 94.9141C694.998 96.7778 696.077 98.7395 696.96 100.799C697.745 102.565 698.382 104.576 698.872 106.832C699.363 109.088 699.51 111.393 699.314 113.747C691.859 113.943 685.827 114.09 681.217 114.188C676.705 114.286 673.174 114.335 670.624 114.335H659.001C657.235 114.335 654.93 114.384 652.086 114.482C649.241 114.58 645.759 114.728 641.639 114.924C642.13 118.847 643.356 121.888 645.318 124.046C647.377 126.105 649.535 127.675 651.791 128.754C654.341 129.931 657.137 130.617 660.178 130.814ZM646.936 104.33C650.075 104.527 652.674 104.674 654.734 104.772C656.892 104.87 658.657 104.968 660.031 105.066C661.502 105.164 662.679 105.213 663.562 105.213H667.24C669.692 105.213 674.253 105.066 680.923 104.772C680.629 100.456 679.697 97.1701 678.127 94.9141C676.656 92.6582 675.087 90.9907 673.419 89.9118C671.458 88.7347 669.3 88.0481 666.946 87.852C660.57 87.95 655.813 89.2742 652.674 91.8244C649.633 94.3747 647.721 98.5433 646.936 104.33Z" fill="url(#paint6_linear_604_4)"/>
<path d="M743.453 130.814C746.199 130.814 748.749 130.519 751.103 129.931C753.065 129.44 754.929 128.656 756.694 127.577C758.558 126.4 759.784 124.683 760.372 122.427C762.334 122.82 764.002 123.163 765.375 123.457C766.748 123.653 767.925 123.849 768.906 124.046C769.985 124.34 770.917 124.536 771.701 124.634C772.486 124.83 773.418 125.027 774.497 125.223C775.478 125.419 776.655 125.664 778.028 125.958C779.499 126.155 781.216 126.449 783.177 126.841C781.706 126.645 780.186 126.792 778.616 127.283C777.145 127.773 775.723 128.312 774.35 128.901C772.78 129.588 771.309 130.421 769.936 131.402C769.053 131.991 768.023 132.873 766.846 134.05C765.767 135.227 764.198 136.355 762.138 137.434C760.078 138.513 757.332 139.445 753.899 140.23C750.564 140.916 746.248 141.162 740.951 140.965C734.576 140.769 729.23 139.641 724.914 137.582C720.599 135.424 717.117 132.824 714.468 129.784C711.82 126.645 709.907 123.261 708.73 119.632C707.553 116.003 706.916 112.619 706.818 109.48C706.719 106.341 707.651 103.055 709.613 99.6223C711.575 96.1893 714.321 93.0505 717.852 90.206C721.481 87.3615 725.846 85.0565 730.947 83.291C736.047 81.4273 741.638 80.4955 747.719 80.4955C751.25 80.4955 754.487 80.9369 757.43 81.8197C760.471 82.6044 763.217 83.6833 765.669 85.0565C768.219 86.4297 770.426 87.9991 772.29 89.7646C774.154 91.4321 775.723 93.1486 776.998 94.9141C778.273 96.7778 779.352 98.7395 780.235 100.799C781.02 102.565 781.657 104.576 782.148 106.832C782.638 109.088 782.785 111.393 782.589 113.747C775.134 113.943 769.102 114.09 764.492 114.188C759.98 114.286 756.449 114.335 753.899 114.335H742.276C740.51 114.335 738.205 114.384 735.361 114.482C732.516 114.58 729.034 114.728 724.914 114.924C725.405 118.847 726.631 121.888 728.593 124.046C730.652 126.105 732.81 127.675 735.066 128.754C737.616 129.931 740.412 130.617 743.453 130.814ZM730.211 104.33C733.35 104.527 735.949 104.674 738.009 104.772C740.167 104.87 741.932 104.968 743.305 105.066C744.777 105.164 745.954 105.213 746.837 105.213H750.515C752.967 105.213 757.528 105.066 764.198 104.772C763.904 100.456 762.972 97.1701 761.402 94.9141C759.931 92.6582 758.362 90.9907 756.694 89.9118C754.732 88.7347 752.575 88.0481 750.221 87.852C743.845 87.95 739.088 89.2742 735.949 91.8244C732.908 94.3747 730.996 98.5433 730.211 104.33Z" fill="url(#paint7_linear_604_4)"/>
<defs>
<linearGradient id="paint0_linear_604_4" x1="400.811" y1="-61.4487" x2="400.811" y2="242.551" gradientUnits="userSpaceOnUse">
<stop stop-color="#DC8998"/>
<stop offset="1" stop-color="#5D2057"/>
</linearGradient>
<linearGradient id="paint1_linear_604_4" x1="400.811" y1="-61.4487" x2="400.811" y2="242.551" gradientUnits="userSpaceOnUse">
<stop stop-color="#DC8998"/>
<stop offset="1" stop-color="#5D2057"/>
</linearGradient>
<linearGradient id="paint2_linear_604_4" x1="531.194" y1="10.5013" x2="531.194" y2="192.901" gradientUnits="userSpaceOnUse">
<stop stop-color="#DC8998"/>
<stop offset="1" stop-color="#5D2057"/>
</linearGradient>
<linearGradient id="paint3_linear_604_4" x1="531.194" y1="10.5013" x2="531.194" y2="192.901" gradientUnits="userSpaceOnUse">
<stop stop-color="#DC8998"/>
<stop offset="1" stop-color="#5D2057"/>
</linearGradient>
<linearGradient id="paint4_linear_604_4" x1="531.194" y1="10.5013" x2="531.194" y2="192.901" gradientUnits="userSpaceOnUse">
<stop stop-color="#DC8998"/>
<stop offset="1" stop-color="#5D2057"/>
</linearGradient>
<linearGradient id="paint5_linear_604_4" x1="531.194" y1="10.5013" x2="531.194" y2="192.901" gradientUnits="userSpaceOnUse">
<stop stop-color="#DC8998"/>
<stop offset="1" stop-color="#5D2057"/>
</linearGradient>
<linearGradient id="paint6_linear_604_4" x1="531.194" y1="10.5013" x2="531.194" y2="192.901" gradientUnits="userSpaceOnUse">
<stop stop-color="#DC8998"/>
<stop offset="1" stop-color="#5D2057"/>
</linearGradient>
<linearGradient id="paint7_linear_604_4" x1="531.194" y1="10.5013" x2="531.194" y2="192.901" gradientUnits="userSpaceOnUse">
<stop stop-color="#DC8998"/>
<stop offset="1" stop-color="#5D2057"/>
</linearGradient>
</defs>
</svg>
